<svg id="Capa_1" data-name="Capa 1" xmlns="http://www.w3.org/2000/svg" viewBox="0 0 25.95 22.58"><defs><style>.cls-1{fill:#e8b1b1;}.cls-2{fill:#ee7b79;}</style></defs><path class="cls-1" d="M300.66,431.59a4.05,4.05,0,0,1-1.33-1.11,12.25,12.25,0,0,1-2-4.25,17.78,17.78,0,0,1-1.37,2.89,5.86,5.86,0,0,1-1.75,1.92,4.2,4.2,0,0,1-3.35.41,5.38,5.38,0,0,1-3.1-2.19,17.59,17.59,0,0,1-2.32-7.22,50.87,50.87,0,0,1-.64-7.92,10.56,10.56,0,0,1,.14-2.7,2.53,2.53,0,0,1,.92-1.34,4,4,0,0,1,4.31.35,2.61,2.61,0,0,1,.74,1.5c.17,1.08.16,6.69.15,7.79a12.89,12.89,0,0,0,.42,4.93c.22.52.69,1.18,1.22,1.05,1-.17,1.43-2,1.63-2.91a23.9,23.9,0,0,0,.32-4.32,59.46,59.46,0,0,1,.16-6,3.71,3.71,0,0,1,1-1.91,2.9,2.9,0,0,1,2.31-.53,7.12,7.12,0,0,1,.9.17,2.15,2.15,0,0,1,1,.7,3.7,3.7,0,0,1,.72,1.94c.12,1-.22,6-.28,7a20.79,20.79,0,0,0,.12,3.61c.14.87.53,2.46,1.36,2.69s1.31-.83,1.56-1.61a14,14,0,0,0,.48-4c.1-2.12.23-4.23.44-6.35a6.82,6.82,0,0,1,.52-2.51,2.8,2.8,0,0,1,1.66-1.25,4.29,4.29,0,0,1,2.58.14,2.43,2.43,0,0,1,1.38,1.38,7.92,7.92,0,0,1,.08,3,51.47,51.47,0,0,1-1.15,7.87,17.71,17.71,0,0,1-2.79,7.08C305.42,431.6,302.57,432.59,300.66,431.59Z" transform="translate(-284.8 -409.41)"/><path class="cls-2" d="M302.5,428a2,2,0,0,1-1.37-.61c-1-.89-2.93-3.78-2.48-8.86.36-4,1.85-5.75.82-6.83a2.54,2.54,0,0,0-3.21-.07c-1,1,.23,2.73.25,6.79a12.1,12.1,0,0,1-1.35,6.15c-.42.76-1.57,2.81-2.92,2.66-1-.1-1.61-1.35-1.64-1.42a4.41,4.41,0,0,1-.1-2.55,11.07,11.07,0,0,0-1.88-6.56c-.29-.46-.89-1.35-1.53-2.22a6.12,6.12,0,0,1-1.45-2.5,2.37,2.37,0,0,1,.24-1.86c.81-1.06,3.16-.8,4.31.35a2.61,2.61,0,0,1,.74,1.5c.17,1.08.16,6.69.15,7.79a12.89,12.89,0,0,0,.42,4.93c.22.52.69,1.18,1.22,1.05,1-.17,1.43-2,1.63-2.91a23.9,23.9,0,0,0,.32-4.32,59.46,59.46,0,0,1,.16-6,3.71,3.71,0,0,1,1-1.91,2.9,2.9,0,0,1,2.31-.53,7.12,7.12,0,0,1,.9.17,2.15,2.15,0,0,1,1,.7,3.7,3.7,0,0,1,.72,1.94c.12,1-.22,6-.28,7a20.79,20.79,0,0,0,.12,3.61c.14.87.53,2.46,1.36,2.69s1.31-.83,1.56-1.61a14,14,0,0,0,.48-4c.1-2.12.23-4.23.44-6.35a6.82,6.82,0,0,1,.52-2.51,2.8,2.8,0,0,1,1.66-1.25,3.31,3.31,0,0,1,2.58.14,2.21,2.21,0,0,1,1.14,1.18c.31,1-.74,2.12-1.51,3-2,2.39-5,6-4.58,9.15a4.2,4.2,0,0,1-.09,2.7C304.1,426.72,303.5,427.9,302.5,428Z" transform="translate(-284.8 -409.41)"/></svg>